<?xml version="1.0" encoding="iso-8859-1"?>
<!-- Generator: Adobe Illustrator 19.0.0, SVG Export Plug-In . SVG Version: 6.00 Build 0)  -->
<svg version="1.1" id="Layer_1" xmlns="http://www.w3.org/2000/svg" xmlns:xlink="http://www.w3.org/1999/xlink" x="0px" y="0px"
	 viewBox="0 0 512 512" style="enable-background:new 0 0 512 512;" xml:space="preserve">
<g>
	<g>
		<path d="M439.652,233.739h-50.087v-16.696c0-9.223-7.479-16.696-16.696-16.696h-50.087h-50.087
			c-9.217,0-16.696,7.473-16.696,16.696v16.696h-33.391V16.696C222.609,7.473,215.13,0,205.913,0H105.739
			C78.12,0,55.652,22.468,55.652,50.087v166.956c0,27.619,22.468,50.087,50.087,50.087h83.478v194.783
			c0,27.619,22.468,50.087,50.087,50.087h166.956c27.619,0,50.087-22.468,50.087-50.087V250.435
			C456.348,241.212,448.869,233.739,439.652,233.739z M422.957,300.522H222.609V267.13h200.348V300.522z"/>
	</g>
</g>
<g>
	<g>
		<path d="M335.206,38.934c-6.326-7.054-18.522-7.054-24.848,0C301.283,49.049,256,101.152,256,133.565
			c0,36.826,29.956,66.783,66.783,66.783c36.826,0,66.783-29.956,66.783-66.783C389.565,101.152,344.282,49.049,335.206,38.934z"/>
	</g>
</g>
<g>
</g>
<g>
</g>
<g>
</g>
<g>
</g>
<g>
</g>
<g>
</g>
<g>
</g>
<g>
</g>
<g>
</g>
<g>
</g>
<g>
</g>
<g>
</g>
<g>
</g>
<g>
</g>
<g>
</g>
</svg>
