<?xml version="1.0" encoding="iso-8859-1"?>
<!-- Generator: Adobe Illustrator 19.0.0, SVG Export Plug-In . SVG Version: 6.00 Build 0)  -->
<svg version="1.1" id="Capa_1" xmlns="http://www.w3.org/2000/svg" xmlns:xlink="http://www.w3.org/1999/xlink" x="0px" y="0px"
	 viewBox="0 0 58.001 58.001" style="enable-background:new 0 0 58.001 58.001;" xml:space="preserve">
<g>
	<path d="M57.589,34.193l-16.606-12.11C40.986,22.054,41,22.03,41,22v-6c0-0.553-0.447-1-1-1H30V6.899C32.28,6.435,34,4.415,34,2
		c0-0.553-0.447-1-1-1s-1,0.447-1,1c0,1.654-1.346,3-3,3s-3-1.346-3-3c0-0.553-0.447-1-1-1s-1,0.447-1,1
		c0,2.414,1.721,4.434,4,4.899V15H18c-0.553,0-1,0.447-1,1v6c0,0.029,0.014,0.054,0.017,0.083L0.411,34.193
		c-0.351,0.255-0.496,0.706-0.362,1.117C0.184,35.722,0.568,36,1,36h15v9.5C16,51.841,21.156,57,27.493,57h3.016
		C36.845,57,42,51.841,42,45.5V36h15c0.433,0,0.816-0.278,0.951-0.69C58.085,34.899,57.94,34.448,57.589,34.193z M19,17h9h2h9v4H19
		C19,21,19,17,19,17z M40,45.5c0,5.238-4.258,9.5-9.492,9.5h-3.016C22.258,55,18,50.739,18,45.5V36h10v4.671
		c-0.605,0.824-1.263,1.62-1.709,2.07c-0.396-0.574-0.964-1.473-1.434-2.256c-0.177-0.294-0.491-0.477-0.834-0.485
		c-0.362-0.018-0.665,0.16-0.855,0.445l-2,3c-0.307,0.46-0.183,1.08,0.277,1.387c0.461,0.305,1.081,0.182,1.387-0.277l1.136-1.704
		c0.474,0.743,1.013,1.545,1.325,1.856c0.22,0.22,0.52,0.342,0.835,0.342c0.033,0,0.067-0.001,0.102-0.004
		c0.289-0.024,1.008-0.084,2.884-2.518l2.18,2.18c0.2,0.201,0.479,0.308,0.763,0.291c0.283-0.016,0.548-0.151,0.726-0.373
		l1.193-1.492l0.726,0.967c0.33,0.442,0.958,0.53,1.399,0.2c0.442-0.331,0.532-0.958,0.2-1.399l-1.5-2
		c-0.186-0.248-0.475-0.396-0.784-0.4c-0.335-0.03-0.604,0.134-0.797,0.375l-1.302,1.628L30,40.586V36h10L40,45.5L40,45.5z M41,34
		H17H4.069l15.084-11h19.695l15.084,11H41z"/>
</g>
<g>
</g>
<g>
</g>
<g>
</g>
<g>
</g>
<g>
</g>
<g>
</g>
<g>
</g>
<g>
</g>
<g>
</g>
<g>
</g>
<g>
</g>
<g>
</g>
<g>
</g>
<g>
</g>
<g>
</g>
</svg>
