<?xml version="1.0" encoding="iso-8859-1"?>
<!-- Generator: Adobe Illustrator 19.0.0, SVG Export Plug-In . SVG Version: 6.00 Build 0)  -->
<svg version="1.1" id="Capa_1" xmlns="http://www.w3.org/2000/svg" xmlns:xlink="http://www.w3.org/1999/xlink" x="0px" y="0px"
	 viewBox="0 0 490.075 490.075" style="enable-background:new 0 0 490.075 490.075;" xml:space="preserve">
<g>
	<g>
		<g>
			<path d="M5.55,458.413c-7.4,7.4-7.4,19.1,0,26.1c7.4,7.4,19.1,7.4,26.1,0l18.3-18.3l-26.1-26.1L5.55,458.413z"/>
			<path d="M470.25,19.813c-26.4-26.4-69.6-26.4-96,0l-120.2,120.2c-20.6,20.6-37.7,43.9-51.3,69.6l-35.4,68.4
				c-13.6,25.7-30.7,49.4-51.3,69.6l-77.8,78.2l26.1,26.1l77.4-77.4c20.6-21,44.7-38.1,70.8-51.7l67.3-35
				c26.1-13.6,49.8-31.1,70.8-51.7l119.8-119.8C496.65,89.413,496.65,46.313,470.25,19.813z M396.35,148.913l-73.9,73.9
				c-8.6,8.6-22.2,8.6-30.7,0l-24.1-24.5c-8.6-8.6-8.6-22.2,0-30.7l74.3-74.3c8.6-8.6,22.2-8.6,30.7,0l24.1,24.5
				C404.95,126.413,404.95,140.413,396.35,148.913z M439.85,79.713c-8.2,8.2-21.4,8.2-29.5,0s-8.2-21.4,0-29.9
				c8.2-8.2,21.4-8.2,29.5,0C448.05,58.313,448.05,71.513,439.85,79.713z"/>
		</g>
	</g>
</g>
<g>
</g>
<g>
</g>
<g>
</g>
<g>
</g>
<g>
</g>
<g>
</g>
<g>
</g>
<g>
</g>
<g>
</g>
<g>
</g>
<g>
</g>
<g>
</g>
<g>
</g>
<g>
</g>
<g>
</g>
</svg>
