<?xml version="1.0" encoding="iso-8859-1"?>
<!-- Generator: Adobe Illustrator 17.1.0, SVG Export Plug-In . SVG Version: 6.00 Build 0)  -->
<!DOCTYPE svg PUBLIC "-//W3C//DTD SVG 1.1//EN" "http://www.w3.org/Graphics/SVG/1.1/DTD/svg11.dtd">
<svg version="1.1" id="Capa_1" xmlns="http://www.w3.org/2000/svg" xmlns:xlink="http://www.w3.org/1999/xlink" x="0px" y="0px"
	 viewBox="0 0 294 294" style="enable-background:new 0 0 294 294;" xml:space="preserve">
<path d="M289.607,44.821l-6.363-6.271c-2.814-2.815-6.631-4.301-10.606-4.301c-0.064,0-0.13,0-0.195,0
	c-4.046,0-7.898,1.645-10.684,4.58L141.241,165.748c-2.316-3.602-5.035-7.041-8.184-10.189c-0.748-0.748-1.574-1.428-2.463-2.002
	l-64.47-41.683c-5.938-3.84-13.75-3.012-18.75,1.987l-42.98,42.978c-5.047,5.046-5.839,12.949-1.894,18.897l42.329,63.818
	c0.552,0.833,1.187,1.608,1.894,2.315c11.53,11.53,26.86,17.881,43.167,17.881c15.851,0,30.768-6.016,42.181-16.941
	c0.157-0.14,0.306-0.289,0.457-0.435c0.175-0.171,0.356-0.331,0.529-0.504c1.658-1.658,3.188-3.395,4.616-5.188l152.53-171.278
	C295.488,59.469,295.227,50.441,289.607,44.821z"/>
<g>
</g>
<g>
</g>
<g>
</g>
<g>
</g>
<g>
</g>
<g>
</g>
<g>
</g>
<g>
</g>
<g>
</g>
<g>
</g>
<g>
</g>
<g>
</g>
<g>
</g>
<g>
</g>
<g>
</g>
</svg>
