<?xml version="1.0" encoding="iso-8859-1"?>
<!-- Generator: Adobe Illustrator 18.0.0, SVG Export Plug-In . SVG Version: 6.00 Build 0)  -->
<!DOCTYPE svg PUBLIC "-//W3C//DTD SVG 1.1//EN" "http://www.w3.org/Graphics/SVG/1.1/DTD/svg11.dtd">
<svg version="1.1" id="Capa_1" xmlns="http://www.w3.org/2000/svg" xmlns:xlink="http://www.w3.org/1999/xlink" x="0px" y="0px"
	 viewBox="0 0 297 297" style="enable-background:new 0 0 297 297;" xml:space="preserve">
<g>
	<path d="M72.845,24.828c0-5.174-4.195-9.369-9.369-9.369c-5.174,0-9.369,4.195-9.369,9.369v124.726h18.738V24.828z"/>
	<path d="M39.604,251.145c7.643-12.702,21.971-21.28,38.364-21.28c3.36,0,6.676,0.359,9.915,1.073
		c4.694-9.939,13.23-17.673,23.583-21.739c0.007-0.297,0.026-0.592,0.026-0.891v-49.385c0-5.174-4.195-9.369-9.369-9.369H72.845
		v45.323c0,5.174-4.195,9.369-9.369,9.369c-5.174,0-9.369-4.195-9.369-9.369v-45.323H24.828c-5.174,0-9.369,4.195-9.369,9.369
		v49.385C15.459,226.038,27.955,241.023,39.604,251.145z"/>
	<path d="M287.631,262.803h-54.587c-4.172-11.512-15.805-19.821-29.472-19.821c-1.797,0-3.643,0.156-5.487,0.463
		c-3.56,0.596-6.934-1.802-7.543-5.362c-0.685-4.001-4.546-7.018-8.982-7.018c-0.629,0-1.262,0.06-1.882,0.179
		c-1.929,0.37-3.927-0.145-5.436-1.405c-1.51-1.26-2.374-3.13-2.357-5.096l0.007-0.29c-0.031-9.501-8.346-17.22-18.563-17.22
		c-6.716,0-12.929,3.401-16.216,8.876c-1.284,2.139-3.662,3.356-6.154,3.162c-1.006-0.082-1.905-0.122-2.751-0.122
		c-14.049,0-26.406,8.881-30.051,21.598c-0.505,1.76-1.723,3.23-3.359,4.052c-1.639,0.823-3.543,0.924-5.256,0.278
		c-3.695-1.391-7.59-2.096-11.576-2.096c-13.667,0-25.3,8.309-29.472,19.821H9.369c-5.174,0-9.369,4.195-9.369,9.369
		s4.195,9.369,9.369,9.369h278.262c5.174,0,9.369-4.195,9.369-9.369S292.805,262.803,287.631,262.803z"/>
</g>
<g>
</g>
<g>
</g>
<g>
</g>
<g>
</g>
<g>
</g>
<g>
</g>
<g>
</g>
<g>
</g>
<g>
</g>
<g>
</g>
<g>
</g>
<g>
</g>
<g>
</g>
<g>
</g>
<g>
</g>
</svg>
